HIERARCHY
ROOT hip
{
	OFFSET 0.000000 0.000000 0.000000 
	CHANNELS 6 Xposition Yposition Zposition Xrotation Zrotation Yrotation
	JOINT abdomen
	{
		OFFSET 0.000000 3.402643 0.000000 
		CHANNELS 3 Xrotation Zrotation Yrotation
		JOINT chest
		{
			OFFSET 0.000000 8.438565 -0.680529 
			CHANNELS 3 Xrotation Zrotation Yrotation
			JOINT neck
			{
				OFFSET 0.000000 10.207942 -0.272212 
				CHANNELS 3 Xrotation Zrotation Yrotation
				JOINT head
				{
					OFFSET 0.000000 3.130431 0.000000 
					CHANNELS 3 Xrotation Zrotation Yrotation
					End Site
					{
						OFFSET 0.000000 3.130435 0.000000 
					}
				}
			}
			JOINT lCollar
			{
				OFFSET 3.470700 6.669187 -0.816635 
				CHANNELS 3 Yrotation Zrotation Xrotation
				JOINT lShldr
				{
					OFFSET 3.198488 0.000000 0.000000 
					CHANNELS 3 Zrotation Yrotation Xrotation
					JOINT lForeArm
					{
						OFFSET 10.139888 0.000000 0.000000 
						CHANNELS 3 Yrotation Zrotation Xrotation
						JOINT lHand
						{
							OFFSET 8.370511 0.000000 0.000000 
							CHANNELS 3 Zrotation Yrotation Xrotation
							End Site
							{
								OFFSET 4.083176 0.000000 0.000000 
							}
						}
					}
				}
			}
			JOINT rCollar
			{
				OFFSET -3.470700 6.669187 -0.816635 
				CHANNELS 3 Yrotation Zrotation Xrotation
				JOINT rShldr
				{
					OFFSET -3.198488 0.000000 0.000000 
					CHANNELS 3 Zrotation Yrotation Xrotation
					JOINT rForeArm
					{
						OFFSET -10.139888 0.000000 0.000000 
						CHANNELS 3 Yrotation Zrotation Xrotation
						JOINT rHand
						{
							OFFSET -8.370511 0.000000 0.000000 
							CHANNELS 3 Zrotation Yrotation Xrotation
							End Site
							{
								OFFSET -4.083176 0.000000 0.000000 
							}
						}
					}
				}
			}
		}
	}
	JOINT lThigh
	{
		OFFSET 5.308129 -1.633274 1.361059 
		CHANNELS 3 Xrotation Zrotation Yrotation
		JOINT lShin
		{
			OFFSET -2.041588 -20.007561 0.000000 
			CHANNELS 3 Xrotation Zrotation Yrotation
			JOINT lFoot
			{
				OFFSET 0.000000 -19.190928 -1.224953 
				CHANNELS 3 Xrotation Yrotation Zrotation
				End Site
				{
					OFFSET 0.000000 -2.449906 4.627600 
				}
			}
		}
	}
	JOINT rThigh
	{
		OFFSET -5.308129 -1.633274 1.361059 
		CHANNELS 3 Xrotation Zrotation Yrotation
		JOINT rShin
		{
			OFFSET 2.041588 -20.007561 0.000000 
			CHANNELS 3 Xrotation Zrotation Yrotation
			JOINT rFoot
			{
				OFFSET 0.000000 -19.190928 -1.224953 
				CHANNELS 3 Xrotation Yrotation Zrotation
				End Site
				{
					OFFSET 0.000000 -2.449906 4.627600 
				}
			}
		}
	}
}
MOTION
Frames: 8
Frame Time: 0.016667
48.266941 46.327240 6.428995 -6.207109 6.803576 -161.800293 53.317917 8.855779 10.763585 1.492990 -0.360736 5.459043 -22.098770 -11.083109 3.802199 -7.623241 -2.906012 -25.269459 -4.504140 -9.481193 -0.501597 -40.340302 -47.716610 16.262657 -74.828690 5.000000 -6.314904 -30.365200 -1.977265 41.412964 13.100779 -9.984009 0.524272 -7.816978 56.003647 -30.175417 53.205990 -5.000000 -24.005083 -5.586347 -18.565950 -12.089191 -50.001003 24.080605 -19.377800 38.023232 -9.985601 -8.942004 1.635449 -1.438642 -11.503900 -17.646015 -23.367062 -21.961136 53.349216 1.396637 1.970087 -21.774940 -13.728174 18.216845 
48.293659 46.269814 6.424960 -6.098667 6.807121 -161.652649 53.321812 8.868325 10.729395 1.474018 -0.350986 5.449277 -22.112389 -11.110453 3.817919 -7.596421 -2.907179 -25.220707 -4.523411 -9.451933 -0.500086 -40.242146 -47.725765 16.172258 -74.828690 5.000000 -6.314904 -30.506405 -1.947286 41.526382 13.178098 -9.896239 0.519729 -7.697778 55.853970 -29.978977 53.269745 -5.000000 -23.946518 -5.639394 -18.576609 -12.130572 -50.161411 24.061777 -19.462587 38.295807 -9.985740 -9.018239 1.566563 -1.584601 -11.528712 -17.636076 -23.347141 -21.983795 53.647144 1.310393 1.850346 -21.972069 -13.795771 18.264164 
48.317429 46.213413 6.422285 -5.990154 6.793242 -161.535202 53.353432 8.876729 10.686967 1.453989 -0.360739 5.439511 -22.124121 -11.139358 3.822300 -7.616448 -2.907412 -25.210957 -4.542769 -9.432426 -0.499079 -40.125275 -47.717239 16.074566 -74.789848 5.000000 -6.323946 -30.594231 -1.990368 41.616711 13.225950 -9.788965 0.514176 -7.602393 55.729553 -29.787855 53.367329 -5.000000 -23.850798 -5.716575 -18.567707 -12.138323 -50.270588 24.042439 -19.480896 38.587757 -9.986532 -9.117004 1.428676 -1.662369 -11.543195 -17.625963 -23.354933 -21.984230 53.979664 1.269574 1.850877 -22.203939 -13.903887 18.237637 
48.341209 46.157009 6.419611 -5.884821 6.770090 -161.417786 53.402901 8.875257 10.641552 1.424754 -0.360743 5.429746 -22.137762 -11.166700 3.836137 -7.622548 -2.916481 -25.201208 -4.550833 -9.423448 -0.488971 -39.997364 -47.718044 15.976446 -74.752098 5.000000 -6.330574 -30.689184 -2.031723 41.699051 13.283578 -9.681691 0.508620 -7.508592 55.605171 -29.596119 53.464802 -5.000000 -23.755199 -5.794888 -18.567280 -12.135225 -50.396568 24.032482 -19.487164 38.858959 -9.986481 -9.231968 1.338027 -1.747845 -11.589148 -17.635696 -23.374901 -21.961615 54.304688 1.220705 1.788642 -22.366003 -13.997753 18.257753 
48.359886 46.100613 6.417510 -5.765819 6.766212 -161.319717 53.454189 8.890780 10.602118 1.415723 -0.351003 5.410215 -22.148844 -11.185969 3.840950 -7.596421 -2.907179 -25.220707 -4.550833 -9.423448 -0.488971 -39.877731 -47.675690 15.856639 -74.750099 5.000000 -6.311864 -30.695587 -2.040181 41.674225 13.321859 -9.593920 0.504074 -7.421068 55.525402 -29.422287 53.532406 -5.000000 -23.686502 -5.879892 -18.543730 -12.161771 -50.505024 24.042416 -19.508471 39.130951 -9.986264 -9.317905 1.216982 -1.839187 -11.597813 -17.635347 -23.363972 -21.952574 54.612495 1.132670 1.657620 -22.528376 -13.990506 18.330755 
48.378551 46.044216 6.415408 -5.646823 6.762315 -161.221680 53.514019 8.879096 10.570005 1.406683 -0.341263 5.390627 -22.170355 -11.214871 3.845332 -7.570302 -2.897879 -25.239714 -4.550747 -9.413693 -0.486870 -39.753025 -47.629509 15.734468 -74.738655 5.000000 -6.294767 -30.707373 -2.065348 41.636395 13.369913 -9.506151 0.499526 -7.327211 55.438320 -29.253086 53.593094 -5.000000 -23.618940 -5.966032 -18.528690 -12.180605 -50.627140 24.051718 -19.553055 39.411068 -9.992241 -9.425006 1.140429 -1.954036 -11.602280 -17.634859 -23.342060 -21.934450 54.929707 1.064496 1.536185 -22.684542 -14.019894 18.335604 
48.394287 45.991924 6.414676 -5.558287 6.758791 -161.133331 53.549622 8.896203 10.548802 1.416507 -0.341266 5.371096 -22.190546 -11.224504 3.846793 -7.559547 -2.897414 -25.259214 -4.542597 -9.412921 -0.498071 -39.625671 -47.576244 15.605805 -74.717758 5.000000 -6.279231 -30.686169 -2.081562 41.615124 13.388764 -9.428133 0.495482 -7.224082 55.381046 -29.087994 53.656570 -5.000000 -23.555140 -6.051070 -18.505384 -12.207349 -50.750355 24.073551 -19.551138 39.641678 -9.998262 -9.488455 1.075881 -2.040490 -11.647596 -17.644722 -23.333391 -21.943693 55.206806 0.987863 1.437121 -22.869848 -14.045804 18.386068 
48.408062 45.942368 6.414845 -5.474293 6.774120 -161.053497 53.576935 8.908557 10.532245 1.425728 -0.351017 5.341857 -22.213316 -11.242214 3.859168 -7.554384 -2.905778 -25.279209 -4.523151 -9.422677 -0.498575 -39.484596 -47.525318 15.470174 -74.699982 5.000000 -6.256457 -30.631069 -2.103736 41.584862 13.407704 -9.359866 0.490355 -7.104960 55.339005 -28.929974 53.716022 -5.000000 -23.501696 -6.144048 -18.493668 -12.229360 -50.858925 24.080523 -19.560484 39.906570 -9.980334 -9.577024 0.950815 -2.127756 -11.707333 -17.683794 -23.333017 -21.908379 55.473789 0.937476 1.349945 -22.945866 -14.054740 18.476191 
